<?xml version="1.0" encoding="UTF-8" standalone="no"?>
<svg width="512" height="512" viewBox="0 0 512 512" xmlns="http://www.w3.org/2000/svg">
  <!-- Shield outline -->
  <path d="M256 32 L50 120 L50 240 C50 352 136 444 256 480 C376 444 462 352 462 240 L462 120 Z" 
        fill="#0B365B" />
  
  <!-- Inner shield -->
  <path d="M256 72 L90 144 L90 240 C90 332 158 408 256 440 C354 408 422 332 422 240 L422 144 Z" 
        fill="#1478B8" />
  
  <!-- Dark shield center -->
  <path d="M256 112 L130 168 L130 240 C130 312 182 371 256 400 C330 371 382 312 382 240 L382 168 Z" 
        fill="#0B365B" />
  
  <!-- Letter A -->
  <path d="M256 160 L160 320 L200 320 L220 280 L292 280 L312 320 L352 320 Z M256 200 L230 260 L282 260 Z" 
        fill="#FFFFFF" />
  
  <!-- Shield points on sides -->
  <path d="M50 180 L20 210 L50 240 Z" fill="#0B365B" />
  <path d="M462 180 L492 210 L462 240 Z" fill="#0B365B" />
</svg> 