<?xml version="1.0" encoding="UTF-8"?>
<svg width="128" height="128" viewBox="0 0 128 128" fill="none" xmlns="http://www.w3.org/2000/svg">
    <!-- Background Shield -->
    <path d="M64 8L16 32V68C16 98.9 36.5 127.7 64 136C91.5 127.7 112 98.9 112 68V32L64 8Z" fill="url(#shield-gradient)">
        <animate attributeName="fill-opacity" values="1;0.8;1" dur="2s" repeatCount="indefinite"/>
    </path>
    
    <!-- URL Symbol -->
    <path d="M48 56C48 51.6 51.6 48 56 48H72C76.4 48 80 51.6 80 56V72C80 76.4 76.4 80 72 80H56C51.6 80 48 76.4 48 72V56ZM56 52C53.8 52 52 53.8 52 56V72C52 74.2 53.8 76 56 76H72C74.2 76 76 74.2 76 72V56C76 53.8 74.2 52 72 52H56Z" fill="white"/>
    
    <!-- Warning Symbol -->
    <path d="M64 54V66M64 70V74" stroke="white" stroke-width="4" stroke-linecap="round">
        <animate attributeName="stroke-opacity" values="1;0.5;1" dur="1s" repeatCount="indefinite"/>
    </path>
    
    <!-- Gradients -->
    <defs>
        <linearGradient id="shield-gradient" x1="64" y1="8" x2="64" y2="136" gradientUnits="userSpaceOnUse">
            <stop offset="0%" stop-color="#F59E0B">
                <animate attributeName="stop-color" values="#F59E0B;#D97706;#F59E0B" dur="3s" repeatCount="indefinite"/>
            </stop>
            <stop offset="100%" stop-color="#D97706">
                <animate attributeName="stop-color" values="#D97706;#B45309;#D97706" dur="3s" repeatCount="indefinite"/>
            </stop>
        </linearGradient>
    </defs>
</svg> 