<?xml version="1.0" encoding="UTF-8"?>
<svg width="128" height="128" viewBox="0 0 128 128" fill="none" xmlns="http://www.w3.org/2000/svg">
    <!-- Background Shield -->
    <path d="M64 8L16 32V68C16 98.9 36.5 127.7 64 136C91.5 127.7 112 98.9 112 68V32L64 8Z" fill="url(#shield-gradient)"/>
    
    <!-- URL Symbol -->
    <path d="M48 56C48 51.6 51.6 48 56 48H72C76.4 48 80 51.6 80 56V72C80 76.4 76.4 80 72 80H56C51.6 80 48 76.4 48 72V56ZM56 52C53.8 52 52 53.8 52 56V72C52 74.2 53.8 76 56 76H72C74.2 76 76 74.2 76 72V56C76 53.8 74.2 52 72 52H56Z" fill="white"/>
    
    <!-- Check Mark -->
    <path d="M60 68L56 64L54 66L60 72L74 58L72 56L60 68Z" fill="white"/>
    
    <!-- Gradients -->
    <defs>
        <linearGradient id="shield-gradient" x1="64" y1="8" x2="64" y2="136" gradientUnits="userSpaceOnUse">
            <stop offset="0%" stop-color="#6366F1"/>
            <stop offset="100%" stop-color="#4F46E5"/>
        </linearGradient>
    </defs>
</svg> 